<?xml version="1.0" standalone="no"?>
<!DOCTYPE svg PUBLIC "-//W3C//DTD SVG 20010904//EN"
 "http://www.w3.org/TR/2001/REC-SVG-20010904/DTD/svg10.dtd">
<svg version="1.0" xmlns="http://www.w3.org/2000/svg"
 width="512.000000pt" height="512.000000pt" viewBox="0 0 512.000000 512.000000"
 preserveAspectRatio="xMidYMid meet">
<metadata>
Created by potrace 1.14, written by Peter Selinger 2001-2017
</metadata>
<g transform="translate(0.000000,512.000000) scale(0.100000,-0.100000)"
fill="#000000" stroke="none">
<path d="M2530 4422 c-8 -3 -17 -9 -20 -13 -3 -4 -17 -10 -31 -12 -15 -3 -35
-10 -45 -15 -41 -21 -80 -35 -91 -33 -7 1 -13 -2 -13 -7 0 -6 -16 -13 -35 -16
-19 -4 -35 -11 -35 -16 0 -6 -3 -9 -7 -8 -9 1 -25 -4 -108 -39 -33 -14 -68
-27 -79 -29 -10 -2 -23 -7 -30 -12 -9 -7 -98 -43 -116 -47 -41 -10 -59 -19
-53 -28 3 -6 1 -7 -5 -3 -6 4 -19 2 -29 -3 -15 -8 -36 -17 -63 -26 -17 -6 -50
-19 -80 -33 -19 -8 -36 -14 -38 -13 -1 1 -16 -6 -32 -14 -16 -8 -32 -15 -35
-15 -22 1 -25 -1 -19 -12 5 -7 2 -9 -7 -6 -8 3 -36 -5 -64 -17 -27 -13 -53
-21 -57 -19 -5 3 -8 1 -8 -4 0 -8 -35 -23 -62 -26 -3 -1 -10 -4 -14 -8 -4 -5
-16 -8 -26 -8 -10 0 -18 -5 -18 -12 0 -6 -3 -8 -7 -5 -3 4 -17 0 -30 -8 -13
-9 -23 -13 -23 -10 0 3 -18 -4 -40 -15 -22 -11 -40 -18 -40 -14 0 3 -16 -4
-35 -16 -19 -12 -35 -19 -35 -16 0 4 -13 0 -29 -8 -16 -9 -31 -12 -35 -9 -3 4
-6 1 -6 -5 0 -7 -9 -12 -19 -12 -11 0 -23 -5 -26 -10 -4 -6 -10 -8 -15 -5 -5
3 -16 -2 -24 -11 -9 -8 -16 -12 -16 -8 0 3 -6 1 -13 -5 -8 -6 -17 -8 -20 -4
-4 3 -15 -1 -25 -10 -10 -10 -22 -14 -25 -10 -4 3 -7 1 -7 -6 0 -7 -5 -9 -10
-6 -6 4 -17 2 -24 -5 -8 -6 -24 -13 -37 -15 -12 -3 -26 -10 -31 -17 -4 -7 -8
-9 -8 -4 0 5 -6 3 -13 -3 -8 -6 -17 -8 -20 -4 -4 3 -7 1 -7 -5 0 -7 5 -13 10
-13 19 -3 25 -5 48 -17 12 -7 22 -10 22 -6 0 3 16 -4 36 -15 20 -12 39 -19 42
-17 3 3 20 -4 38 -15 19 -11 38 -18 44 -14 5 3 10 2 10 -3 0 -5 19 -15 43 -22
23 -7 45 -16 48 -21 3 -5 19 -11 36 -12 17 -1 29 -5 26 -9 -2 -5 1 -9 6 -9 21
-3 26 -4 39 -12 6 -5 16 -6 21 -3 5 3 11 0 14 -8 4 -11 61 -30 70 -23 1 1 19
-9 40 -21 20 -13 37 -21 37 -18 0 4 13 0 30 -9 16 -8 32 -15 35 -15 3 0 18 -6
34 -14 16 -9 31 -12 35 -9 3 4 6 1 6 -5 0 -7 3 -11 8 -10 4 1 17 -3 30 -10 12
-7 22 -10 22 -7 0 3 13 -1 29 -9 16 -9 32 -12 36 -8 5 4 5 1 1 -5 -5 -9 0 -13
14 -13 32 0 15 -17 -25 -24 -19 -4 -35 -11 -35 -16 0 -6 -3 -9 -7 -9 -17 3
-73 -14 -73 -22 0 -5 -3 -8 -7 -7 -5 1 -18 -3 -30 -10 -13 -7 -23 -10 -23 -7
0 3 -10 0 -22 -7 -13 -7 -27 -12 -33 -13 -5 0 -25 -8 -42 -18 -18 -10 -33 -15
-33 -11 0 4 -7 0 -16 -7 -9 -7 -26 -14 -37 -16 -12 -2 -35 -9 -52 -17 -58 -27
-90 -39 -97 -38 -5 1 -8 -2 -8 -6 0 -5 -6 -9 -12 -9 -7 0 -35 -11 -63 -23 -27
-13 -54 -24 -60 -24 -5 -1 -20 -7 -32 -14 -13 -7 -23 -10 -23 -6 0 3 -11 -1
-25 -10 -13 -9 -33 -17 -44 -19 -10 -2 -27 -9 -37 -17 -9 -8 -19 -14 -21 -12
-1 1 -5 1 -8 1 -3 -1 -9 -3 -15 -4 -5 -1 -16 -3 -22 -4 -14 -1 26 -32 45 -35
7 -1 28 -10 48 -20 20 -9 46 -18 57 -19 11 0 19 -4 16 -8 -2 -4 21 -15 52 -24
31 -9 67 -23 80 -32 13 -8 24 -12 24 -8 0 4 11 0 23 -8 13 -8 32 -17 43 -19
10 -2 22 -7 25 -11 3 -4 16 -9 27 -10 12 -1 22 -5 22 -10 0 -4 4 -6 9 -3 4 3
17 -1 27 -9 10 -8 29 -15 42 -15 12 0 22 -4 22 -10 0 -5 16 -12 35 -16 19 -3
35 -11 35 -16 0 -6 7 -8 15 -4 8 3 15 0 15 -6 0 -6 3 -8 6 -5 4 3 16 1 28 -5
11 -7 24 -11 29 -10 4 1 7 -3 7 -8 0 -6 6 -10 13 -9 14 2 60 -14 97 -35 14 -8
28 -15 32 -15 4 -1 18 -5 30 -10 22 -8 22 -8 3 -14 -11 -4 -22 -6 -25 -6 -3 1
-23 -8 -45 -20 -22 -11 -54 -24 -72 -27 -18 -3 -33 -10 -33 -15 0 -5 -8 -9
-18 -9 -10 0 -22 -3 -26 -7 -4 -5 -11 -8 -14 -9 -4 0 -20 -6 -37 -13 -16 -7
-32 -13 -35 -13 -3 0 -22 -9 -43 -19 -20 -11 -37 -17 -37 -14 0 3 -10 0 -22
-7 -13 -7 -26 -11 -30 -10 -5 1 -8 -3 -8 -9 0 -5 -4 -7 -10 -4 -5 3 -10 2 -10
-2 0 -5 -9 -9 -20 -10 -10 -1 -36 -10 -57 -20 -21 -10 -40 -18 -43 -18 -3 -1
-20 -9 -37 -18 -18 -10 -36 -18 -40 -18 -21 0 -60 -14 -80 -26 -19 -13 -40
-20 -66 -22 -5 -1 -5 -6 -1 -13 4 -7 3 -8 -5 -4 -6 4 -18 2 -26 -4 -8 -7 -15
-10 -15 -6 0 4 -14 -1 -32 -10 l-32 -16 35 -13 c19 -7 50 -20 70 -28 20 -9 39
-13 43 -10 3 4 6 1 6 -5 0 -7 4 -12 9 -12 5 0 20 -4 33 -9 13 -5 28 -10 33
-11 6 -1 27 -11 47 -21 21 -11 38 -17 38 -14 0 2 16 -4 36 -15 19 -11 39 -18
44 -15 4 3 10 1 12 -5 2 -6 12 -12 23 -14 21 -4 83 -30 127 -53 15 -7 31 -14
35 -14 23 0 53 -12 53 -22 0 -6 3 -8 6 -4 4 3 19 0 35 -9 16 -8 29 -12 29 -8
0 3 15 -4 33 -15 19 -11 37 -18 40 -14 4 3 15 -1 24 -10 10 -8 32 -19 48 -23
17 -4 35 -9 40 -13 6 -3 13 -6 18 -7 4 -1 10 -2 15 -3 4 -1 -13 -11 -38 -23
-25 -12 -49 -20 -54 -19 -4 1 -14 -3 -21 -9 -7 -6 -23 -13 -36 -15 -12 -3 -26
-10 -29 -16 -4 -6 -10 -10 -14 -9 -6 2 -18 0 -54 -10 -4 -1 -20 -12 -36 -23
-17 -12 -26 -15 -21 -6 7 11 4 11 -15 -2 -14 -9 -43 -21 -65 -28 -22 -7 -53
-19 -70 -26 -78 -35 -110 -49 -115 -50 -3 -1 -18 -7 -33 -13 -16 -7 -35 -12
-43 -12 -8 0 -14 -5 -14 -11 0 -5 -4 -8 -9 -4 -5 3 -12 1 -16 -5 -4 -6 -11 -8
-16 -5 -5 4 -9 1 -9 -6 0 -7 -3 -10 -6 -6 -4 3 -19 0 -34 -8 -15 -8 -30 -11
-34 -8 -3 4 -6 1 -6 -5 0 -7 -3 -11 -7 -10 -5 1 -18 -3 -30 -10 -13 -7 -23
-10 -23 -7 0 3 -10 0 -22 -7 -13 -7 -26 -11 -30 -10 -5 1 -8 -3 -8 -9 0 -5 -4
-7 -10 -4 -5 3 -10 2 -10 -3 0 -9 47 -27 63 -24 4 1 7 -2 7 -7 0 -8 27 -19 68
-27 7 -1 24 -9 37 -18 13 -9 33 -16 44 -16 11 0 23 -5 26 -10 4 -6 11 -8 16
-5 5 4 9 1 9 -4 0 -6 3 -10 8 -9 4 1 21 -5 37 -12 17 -7 33 -14 37 -14 3 -1
10 -4 14 -8 4 -5 15 -8 24 -8 8 0 34 -9 55 -20 22 -11 50 -21 62 -22 12 -1 20
-5 18 -9 -4 -6 74 -34 88 -31 4 1 7 -3 7 -8 0 -6 8 -10 18 -10 10 0 23 -5 30
-12 7 -7 12 -9 12 -5 0 4 15 0 32 -10 18 -10 38 -18 43 -18 11 -1 76 -29 119
-52 16 -9 26 -11 22 -5 -5 8 -1 10 8 6 9 -3 16 -10 16 -14 0 -4 12 -11 28 -14
15 -4 41 -13 57 -20 62 -29 90 -40 100 -41 6 -1 20 -6 31 -13 12 -6 24 -8 28
-5 3 3 6 1 6 -5 0 -7 8 -12 18 -12 10 0 23 -5 30 -12 7 -7 12 -8 12 -4 0 5 11
1 25 -8 13 -9 32 -17 42 -19 10 -2 28 -8 39 -15 12 -6 24 -8 28 -5 3 3 6 0 6
-7 0 -7 3 -10 7 -7 3 4 12 2 19 -3 6 -6 20 -12 30 -15 11 -2 42 -13 69 -25
111 -48 127 -54 138 -52 4 1 7 -2 7 -7 0 -7 28 -17 71 -25 3 -1 21 -8 40 -18
104 -50 138 -55 187 -26 17 11 32 17 32 13 0 -4 17 4 38 17 20 12 37 21 37 19
0 -2 19 2 43 8 27 8 40 16 36 23 -4 7 -3 8 4 4 7 -4 33 3 59 15 27 12 53 23
58 23 6 1 25 9 43 19 17 10 32 15 32 11 0 -3 11 1 25 10 14 9 25 14 25 11 0
-3 15 2 33 12 17 9 40 17 50 18 11 1 22 7 27 14 4 7 10 12 14 12 6 -1 8 -1 24
4 51 14 62 18 62 26 0 5 3 8 8 8 16 -3 72 14 72 22 0 5 3 8 8 7 7 -1 21 3 82
28 74 29 95 37 109 40 8 1 17 8 21 14 4 7 10 11 14 11 22 -3 36 1 48 12 7 7
16 14 21 15 4 1 8 2 10 3 1 0 12 2 25 5 12 2 35 12 49 21 15 10 27 17 28 15 0
-2 12 -1 27 3 16 4 25 12 21 18 -4 6 0 8 9 4 9 -3 25 1 36 8 10 8 22 12 25 9
3 -3 16 1 29 10 12 9 30 16 40 16 10 0 18 5 18 12 0 6 3 8 6 5 4 -3 16 -1 28
5 11 7 30 13 40 15 11 2 25 8 33 14 7 6 13 8 13 4 0 -3 15 3 33 14 19 11 37
18 40 14 4 -3 7 0 7 7 0 7 3 10 6 7 4 -3 16 -1 28 5 11 7 26 12 31 13 6 0 22
6 38 13 67 30 82 35 90 34 4 -1 7 3 7 9 0 5 4 8 9 4 5 -3 12 -1 16 5 3 5 15
10 26 10 26 0 20 24 -7 28 -10 2 -26 5 -34 8 -8 3 -15 4 -15 3 0 -2 -18 6 -40
18 -37 20 -100 46 -117 49 -5 1 -11 3 -15 4 -5 1 -11 2 -15 1 -5 0 -8 3 -8 9
0 5 -8 10 -18 10 -10 0 -27 7 -39 15 -12 9 -26 15 -30 14 -4 -1 -30 8 -58 21
-27 13 -56 23 -62 23 -7 0 -13 4 -13 9 0 5 -6 8 -12 6 -7 -1 -24 4 -38 12 -14
7 -26 13 -28 11 -1 -1 -16 6 -32 14 -17 9 -30 13 -30 9 0 -4 -7 -1 -15 6 -8 6
-20 8 -26 4 -8 -4 -9 -3 -5 4 6 10 -6 17 -16 11 -2 -1 -22 8 -45 20 -24 12
-43 19 -43 15 0 -3 -11 1 -25 10 -13 9 -33 16 -45 16 -11 0 -20 4 -20 9 0 5
-14 12 -30 16 -17 4 -27 11 -24 16 3 6 8 8 11 5 3 -3 15 0 27 6 11 7 26 12 31
13 11 1 55 19 98 41 16 8 35 14 43 14 8 0 14 5 14 11 0 5 5 7 10 4 6 -4 18 -1
27 7 9 7 17 12 17 10 1 -2 12 1 26 6 14 5 28 10 33 11 4 0 22 8 40 18 17 9 38
16 45 15 6 -2 12 2 12 8 0 5 3 9 8 8 4 -1 17 3 30 10 12 7 22 9 22 5 0 -4 5
-2 12 5 7 7 20 12 30 12 10 0 18 5 18 11 0 5 5 7 11 4 5 -4 19 1 30 11 10 9
19 14 19 10 0 -3 17 2 38 13 20 10 40 19 45 20 28 3 57 15 57 23 0 5 5 6 10 3
6 -3 10 -2 10 3 0 5 6 9 13 10 28 2 61 12 67 22 5 8 33 17 64 19 17 2 -15 29
-42 36 -14 3 -47 16 -72 27 -25 12 -51 21 -57 21 -7 0 -13 4 -13 7 0 6 -45 19
-65 20 -3 0 -20 7 -38 17 -17 9 -34 17 -37 18 -3 0 -11 4 -17 8 -7 5 -13 5
-13 1 0 -4 -8 1 -19 10 -10 9 -22 16 -27 14 -5 -1 -19 3 -30 10 -12 6 -24 8
-28 5 -3 -3 -6 -2 -6 4 0 9 -35 24 -50 21 -3 0 -23 8 -45 20 -22 11 -49 22
-60 24 -11 1 -26 9 -33 16 -8 7 -17 10 -22 7 -5 -3 -11 -1 -15 5 -3 5 -15 10
-26 10 -10 0 -19 4 -19 9 0 5 -15 12 -33 15 -18 3 -49 15 -70 26 -20 11 -40
20 -44 20 -5 0 -17 3 -28 7 -19 6 -19 6 3 14 12 5 24 9 27 9 3 0 28 12 57 25
29 14 61 25 71 25 11 0 15 4 11 12 -4 7 -3 8 4 4 6 -4 22 -1 34 6 25 13 30 15
54 17 8 0 13 5 10 9 -2 4 7 9 22 10 14 1 29 7 33 13 3 6 9 10 13 10 9 -1 39 9
58 20 10 5 25 9 33 9 8 0 15 4 15 8 0 4 10 8 21 9 12 1 31 10 42 20 11 10 17
12 12 4 -6 -11 -3 -11 21 1 53 27 98 47 142 61 23 7 39 17 35 21 -4 4 0 4 10
0 10 -3 17 -1 17 6 0 6 4 9 9 5 5 -3 12 -1 16 5 4 6 11 8 16 5 5 -4 9 -1 9 4
0 6 3 10 8 9 14 -3 92 26 103 39 8 9 8 13 0 13 -6 0 -12 -1 -13 -2 -2 -1 -16
5 -33 14 -37 20 -92 41 -101 38 -4 -1 -10 3 -14 10 -4 6 -17 12 -28 13 -12 1
-22 4 -22 7 0 3 -10 6 -22 7 -11 1 -24 6 -27 11 -7 10 -71 34 -71 26 0 -3 -7
2 -16 10 -8 9 -23 16 -33 16 -10 0 -21 3 -25 7 -3 4 -16 8 -27 10 -11 2 -27
10 -36 18 -8 8 -18 13 -23 10 -5 -3 -25 4 -44 15 -20 11 -36 17 -36 15 0 -3
-13 1 -30 10 -16 8 -32 15 -35 15 -3 0 -19 7 -35 15 -17 9 -30 13 -30 9 0 -3
-15 3 -32 14 -18 11 -42 22 -53 24 -11 1 -22 6 -25 10 -3 4 -15 9 -25 11 -11
2 -31 9 -45 17 -14 7 -26 13 -27 12 -2 -1 -6 -2 -10 -2 -14 1 79 40 94 40 8 0
11 5 7 12 -4 6 -3 8 4 4 6 -3 36 5 67 18 30 14 58 25 60 25 3 0 19 8 35 16 17
9 30 13 30 9 0 -3 11 1 24 9 13 9 45 21 70 28 25 6 43 15 40 20 -3 5 1 6 9 3
8 -3 18 -1 22 5 3 6 15 11 26 11 10 0 19 5 19 10 0 6 3 9 8 8 14 -3 92 25 92
34 0 4 9 8 20 8 11 0 44 11 72 25 29 14 62 27 74 29 12 3 34 12 48 21 14 10
26 14 26 11 0 -4 10 -1 23 6 12 7 27 11 34 10 6 -1 14 2 18 7 6 11 -49 44 -59
34 -3 -4 -6 -1 -6 5 0 7 -3 11 -7 10 -5 -1 -18 3 -30 10 -13 7 -23 10 -23 7 0
-3 -15 2 -32 12 -18 10 -37 18 -43 18 -5 1 -20 6 -31 13 -12 6 -24 8 -28 5 -3
-3 -6 -1 -6 6 0 7 -4 10 -9 6 -5 -3 -13 0 -16 6 -4 5 -14 8 -22 5 -8 -3 -11
-1 -8 4 3 6 1 11 -4 11 -20 3 -26 4 -56 16 -16 6 -39 15 -50 19 -11 4 -23 6
-27 6 -5 -1 -8 3 -8 8 0 6 -9 10 -19 10 -11 0 -23 5 -26 11 -4 6 -13 8 -21 5
-8 -3 -14 -1 -14 4 0 6 -3 9 -7 8 -5 -1 -18 3 -30 10 -13 7 -23 9 -23 5 0 -4
-4 -2 -9 5 -4 7 -18 14 -29 15 -12 1 -22 6 -22 11 0 5 -3 7 -6 3 -4 -3 -21 1
-38 10 -17 9 -37 18 -44 19 -8 1 -28 9 -45 18 -43 20 -81 34 -87 32 -3 0 -18
7 -34 17 -15 10 -30 16 -33 13 -4 -3 -21 4 -39 15 -19 11 -38 18 -44 14 -5 -3
-10 -1 -10 4 0 6 -9 11 -20 11 -11 0 -20 5 -20 10 0 6 -11 10 -24 10 -14 0
-28 5 -31 11 -4 6 -14 8 -22 5 -8 -3 -12 -2 -9 3 5 8 -16 17 -49 22 -5 0 -19
6 -30 12 -11 6 -23 10 -27 9 -5 -1 -8 2 -8 6 0 5 -6 9 -12 10 -20 1 -101 32
-115 44 -7 5 -16 7 -21 4 -6 -3 -15 1 -22 8 -11 14 -66 32 -82 28 -5 -1 -8 2
-8 7 0 5 -17 15 -37 22 -21 6 -43 16 -50 21 -7 5 -16 7 -22 4 -5 -3 -11 -2
-13 3 -1 6 -15 12 -30 15 -14 2 -38 12 -52 21 -14 10 -26 14 -26 10 0 -3 -17
4 -37 16 -22 14 -33 17 -28 8 7 -11 6 -12 -6 -3 -15 12 -34 14 -59 6z"/>
</g>
</svg>
